{
	"asset":{
		"generator":"Khronos glTF Blender I/O v4.3.47",
		"version":"2.0"
	},
	"scene":0,
	"scenes":[
		{
			"name":"Scene",
			"nodes":[
				0,
				1,
				2,
				3
			]
		}
	],
	"nodes":[
		{
			"mesh":0,
			"name":"Cube",
			"scale":[
				4.090311050415039,
				0.4256936311721802,
				2.47225284576416
			]
		},
		{
			"mesh":1,
			"name":"Cube.001",
			"scale":[
				0.71565181016922,
				1.2714976072311401,
				0.39117512106895447
			],
			"translation":[
				0,
				1.51261568069458,
				0
			]
		},
		{
			"mesh":2,
			"name":"Cube.002",
			"scale":[
				8.018414497375488,
				5.630112648010254,
				0.8561251163482666
			],
			"translation":[
				0,
				7.9858245849609375,
				0
			]
		},
		{
			"mesh":3,
			"name":"Text",
			"rotation":[
				0.7071068286895752,
				0,
				0,
				0.7071068286895752
			],
			"scale":[
				8.915518760681152,
				1,
				8.915518760681152
			],
			"translation":[
				-3.1860275268554688,
				5.138515949249268,
				0.8445113301277161
			]
		}
	],
	"materials":[
		{
			"doubleSided":true,
			"name":"Material",
			"pbrMetallicRoughness":{
				"baseColorFactor":[
					0.0021246522665023804,
					0.0036764980759471655,
					0.035601332783699036,
					1
				],
				"metallicFactor":0,
				"roughnessFactor":0.5
			}
		},
		{
			"doubleSided":true,
			"name":"Material.001",
			"pbrMetallicRoughness":{
				"baseColorFactor":[
					0.0021246522665023804,
					0.0036764980759471655,
					0.035601332783699036,
					1
				],
				"metallicFactor":0,
				"roughnessFactor":0.5
			}
		},
		{
			"doubleSided":true,
			"name":"Material.003",
			"pbrMetallicRoughness":{
				"baseColorTexture":{
					"index":0
				},
				"metallicFactor":0,
				"roughnessFactor":0.5
			}
		}
	],
	"meshes":[
		{
			"name":"Cube",
			"primitives":[
				{
					"attributes":{
						"POSITION":0,
						"NORMAL":1,
						"TEXCOORD_0":2
					},
					"indices":3,
					"material":0
				}
			]
		},
		{
			"name":"Cube.001",
			"primitives":[
				{
					"attributes":{
						"POSITION":4,
						"NORMAL":5,
						"TEXCOORD_0":6
					},
					"indices":7,
					"material":1
				}
			]
		},
		{
			"name":"Cube.002",
			"primitives":[
				{
					"attributes":{
						"POSITION":8,
						"NORMAL":9,
						"TEXCOORD_0":10,
						"COLOR_0":11,
						"COLOR_1":12
					},
					"indices":13,
					"material":2
				}
			]
		},
		{
			"name":"Text",
			"primitives":[
				{
					"attributes":{
						"POSITION":14,
						"NORMAL":15,
						"TEXCOORD_0":16
					},
					"indices":17
				}
			]
		}
	],
	"textures":[
		{
			"sampler":0,
			"source":0
		}
	],
	"images":[
		{
			"mimeType":"image/png",
			"name":"Material",
			"uri":"Material.png"
		}
	],
	"accessors":[
		{
			"bufferView":0,
			"componentType":5126,
			"count":600,
			"max":[
				1,
				1,
				1
			],
			"min":[
				-1,
				-1,
				-1
			],
			"type":"VEC3"
		},
		{
			"bufferView":1,
			"componentType":5126,
			"count":600,
			"type":"VEC3"
		},
		{
			"bufferView":2,
			"componentType":5126,
			"count":600,
			"type":"VEC2"
		},
		{
			"bufferView":3,
			"componentType":5123,
			"count":900,
			"type":"SCALAR"
		},
		{
			"bufferView":4,
			"componentType":5126,
			"count":24,
			"max":[
				1,
				1,
				1
			],
			"min":[
				-1,
				-1,
				-1
			],
			"type":"VEC3"
		},
		{
			"bufferView":5,
			"componentType":5126,
			"count":24,
			"type":"VEC3"
		},
		{
			"bufferView":6,
			"componentType":5126,
			"count":24,
			"type":"VEC2"
		},
		{
			"bufferView":7,
			"componentType":5123,
			"count":36,
			"type":"SCALAR"
		},
		{
			"bufferView":8,
			"componentType":5126,
			"count":880,
			"max":[
				1,
				1,
				1
			],
			"min":[
				-1,
				-1,
				-1
			],
			"type":"VEC3"
		},
		{
			"bufferView":9,
			"componentType":5126,
			"count":880,
			"type":"VEC3"
		},
		{
			"bufferView":10,
			"componentType":5126,
			"count":880,
			"type":"VEC2"
		},
		{
			"bufferView":11,
			"componentType":5121,
			"count":880,
			"normalized":true,
			"type":"VEC4"
		},
		{
			"bufferView":12,
			"componentType":5123,
			"count":880,
			"normalized":true,
			"type":"VEC4"
		},
		{
			"bufferView":13,
			"componentType":5123,
			"count":1308,
			"type":"SCALAR"
		},
		{
			"bufferView":14,
			"componentType":5126,
			"count":780,
			"max":[
				0.7240374088287354,
				0.5199999809265137,
				0.019999999552965164
			],
			"min":[
				0.056000005453825,
				-0.5199999809265137,
				-0.7020000219345093
			],
			"type":"VEC3"
		},
		{
			"bufferView":15,
			"componentType":5126,
			"count":780,
			"type":"VEC3"
		},
		{
			"bufferView":16,
			"componentType":5126,
			"count":780,
			"type":"VEC2"
		},
		{
			"bufferView":17,
			"componentType":5123,
			"count":3888,
			"type":"SCALAR"
		}
	],
	"bufferViews":[
		{
			"buffer":0,
			"byteLength":7200,
			"byteOffset":0,
			"target":34962
		},
		{
			"buffer":0,
			"byteLength":7200,
			"byteOffset":7200,
			"target":34962
		},
		{
			"buffer":0,
			"byteLength":4800,
			"byteOffset":14400,
			"target":34962
		},
		{
			"buffer":0,
			"byteLength":1800,
			"byteOffset":19200,
			"target":34963
		},
		{
			"buffer":0,
			"byteLength":288,
			"byteOffset":21000,
			"target":34962
		},
		{
			"buffer":0,
			"byteLength":288,
			"byteOffset":21288,
			"target":34962
		},
		{
			"buffer":0,
			"byteLength":192,
			"byteOffset":21576,
			"target":34962
		},
		{
			"buffer":0,
			"byteLength":72,
			"byteOffset":21768,
			"target":34963
		},
		{
			"buffer":0,
			"byteLength":10560,
			"byteOffset":21840,
			"target":34962
		},
		{
			"buffer":0,
			"byteLength":10560,
			"byteOffset":32400,
			"target":34962
		},
		{
			"buffer":0,
			"byteLength":7040,
			"byteOffset":42960,
			"target":34962
		},
		{
			"buffer":0,
			"byteLength":3520,
			"byteOffset":50000,
			"target":34962
		},
		{
			"buffer":0,
			"byteLength":7040,
			"byteOffset":53520,
			"target":34962
		},
		{
			"buffer":0,
			"byteLength":2616,
			"byteOffset":60560,
			"target":34963
		},
		{
			"buffer":0,
			"byteLength":9360,
			"byteOffset":63176,
			"target":34962
		},
		{
			"buffer":0,
			"byteLength":9360,
			"byteOffset":72536,
			"target":34962
		},
		{
			"buffer":0,
			"byteLength":6240,
			"byteOffset":81896,
			"target":34962
		},
		{
			"buffer":0,
			"byteLength":7776,
			"byteOffset":88136,
			"target":34963
		}
	],
	"samplers":[
		{
			"magFilter":9729,
			"minFilter":9987
		}
	],
	"buffers":[
		{
			"byteLength":95912,
			"uri":"TheDeiw.bin"
		}
	]
}
