<svg width="216" height="153" viewBox="0 0 216 153" fill="none" xmlns="http://www.w3.org/2000/svg">
<g clip-path="url(#clip0_76_378)">
<mask id="mask0_76_378" style="mask-type:alpha" maskUnits="userSpaceOnUse" x="0" y="0" width="216" height="153">
<path d="M211.486 24.122C209.002 14.7789 201.684 7.42162 192.39 4.92465C175.545 0.386719 108 0.386719 108 0.386719C108 0.386719 40.455 0.386719 23.6101 4.92465C14.3169 7.42162 6.99737 14.7789 4.51358 24.122C0 41.0557 0 76.3867 0 76.3867C0 76.3867 0 111.717 4.51358 128.653C6.99737 137.995 14.3169 145.352 23.6101 147.85C40.455 152.387 108 152.387 108 152.387C108 152.387 175.545 152.387 192.39 147.85C201.684 145.352 209.002 137.995 211.486 128.653C216 111.717 216 76.3867 216 76.3867C216 76.3867 216 41.0557 211.486 24.122Z" fill="#ED1D24"/>
</mask>
<g mask="url(#mask0_76_378)">
<g filter="url(#filter0_ii_76_378)">
<path d="M211.486 24.122C209.002 14.7789 201.684 7.42162 192.39 4.92465C175.545 0.386719 108 0.386719 108 0.386719C108 0.386719 40.455 0.386719 23.6101 4.92465C14.3169 7.42162 6.99737 14.7789 4.51358 24.122C0 41.0557 0 76.3867 0 76.3867C0 76.3867 0 111.717 4.51358 128.653C6.99737 137.995 14.3169 145.352 23.6101 147.85C40.455 152.387 108 152.387 108 152.387C108 152.387 175.545 152.387 192.39 147.85C201.684 145.352 209.002 137.995 211.486 128.653C216 111.717 216 76.3867 216 76.3867C216 76.3867 216 41.0557 211.486 24.122Z" fill="#24292E"/>
</g>
<g filter="url(#filter1_ii_76_378)">
<path d="M211.486 24.122C209.002 14.7789 201.684 7.42162 192.39 4.92465C175.545 0.386719 108 0.386719 108 0.386719C108 0.386719 40.455 0.386719 23.6101 4.92465C14.3169 7.42162 6.99737 14.7789 4.51358 24.122C0 41.0557 0 76.3867 0 76.3867C0 76.3867 0 111.717 4.51358 128.653C6.99737 137.995 14.3169 145.352 23.6101 147.85C40.455 152.387 108 152.387 108 152.387C108 152.387 175.545 152.387 192.39 147.85C201.684 145.352 209.002 137.995 211.486 128.653C216 111.717 216 76.3867 216 76.3867C216 76.3867 216 41.0557 211.486 24.122Z" fill="black" fill-opacity="0.04" style="mix-blend-mode:color-burn"/>
</g>
<g style="mix-blend-mode:plus-lighter" filter="url(#filter2_f_76_378)">
<path d="M211.003 24.2508L211.003 24.2505C208.565 15.0792 201.38 7.85782 192.26 5.40753L192.26 5.40744C188.101 4.28702 180.766 3.43825 172.061 2.79982C163.37 2.16243 153.356 1.73726 143.863 1.45374C134.372 1.17024 125.405 1.02847 118.812 0.957596C115.515 0.92215 112.812 0.904434 110.933 0.895569C109.993 0.891144 109.26 0.888931 108.762 0.887833C108.659 0.887604 108.566 0.887421 108.484 0.887283C108.366 0.88707 108.269 0.886932 108.194 0.886856L108.049 0.886734L108.012 0.886719H108.003H108.001C108 0.886719 108 0.886719 108 0.386719C108 0.886719 108 0.886719 107.999 0.886719H107.997H107.988L107.951 0.886734L107.806 0.886856C107.678 0.886993 107.488 0.887268 107.238 0.887833C106.74 0.888931 106.007 0.891144 105.067 0.895569C103.188 0.904434 100.485 0.92215 97.1883 0.957596C90.5948 1.02847 81.6286 1.17024 72.1368 1.45374C62.6442 1.73726 52.6299 2.16243 43.939 2.79982C35.234 3.43825 27.8992 4.28702 23.7402 5.40744L23.7399 5.40753C14.6203 7.85782 7.43489 15.0793 4.99679 24.2505L4.99671 24.2508C2.755 32.661 1.62782 45.679 1.06353 56.6302C0.781776 62.0984 0.640877 67.0384 0.570427 70.6115C0.535205 72.3979 0.517597 73.8424 0.508796 74.8399C0.504395 75.3387 0.502196 75.7257 0.501098 75.9879C0.500548 76.119 0.500274 76.2189 0.500137 76.2859L0.500017 76.3615L0.500002 76.3805L0.5 76.3852L0.5 76.3864C0.5 76.3866 0.5 76.3867 0 76.3867C0.5 76.3867 0.5 76.3868 0.5 76.3871L0.5 76.3882L0.500002 76.3929L0.500017 76.4119L0.500137 76.4876C0.500274 76.5546 0.500548 76.6544 0.501098 76.7855C0.502196 77.0477 0.504395 77.4347 0.508796 77.9335C0.517597 78.931 0.535205 80.3755 0.570427 82.1619C0.640877 85.7349 0.781776 90.675 1.06353 96.1432C1.62782 107.094 2.755 120.113 4.99671 128.524L4.99679 128.524C7.43488 137.694 14.6203 144.916 23.7399 147.367L23.7402 147.367C27.8992 148.487 35.234 149.336 43.939 149.974C52.6299 150.611 62.6442 151.036 72.1368 151.32C81.6286 151.603 90.5948 151.745 97.1883 151.816C100.485 151.851 103.188 151.869 105.067 151.878C106.007 151.882 106.74 151.885 107.238 151.886C107.488 151.886 107.678 151.886 107.806 151.887L107.951 151.887L107.988 151.887L107.997 151.887L107.999 151.887C108 151.887 108 151.887 108 152.387C108 151.887 108 151.887 108.001 151.887L108.003 151.887L108.012 151.887L108.049 151.887L108.194 151.887C108.322 151.886 108.512 151.886 108.762 151.886C109.26 151.885 109.993 151.882 110.933 151.878C112.812 151.869 115.515 151.851 118.812 151.816C125.405 151.745 134.372 151.603 143.863 151.32C153.356 151.036 163.37 150.611 172.061 149.974C180.766 149.336 188.101 148.487 192.26 147.367L192.26 147.367C201.38 144.916 208.565 137.694 211.003 128.524L211.003 128.524C213.245 120.113 214.372 107.094 214.936 96.1432C215.218 90.675 215.359 85.7349 215.43 82.1619C215.465 80.3755 215.482 78.931 215.491 77.9335C215.496 77.4347 215.498 77.0477 215.499 76.7855L215.499 76.6531C215.5 76.5851 215.5 76.5298 215.5 76.4876L215.5 76.4119L215.5 76.3929V76.3882V76.3871C215.5 76.3868 215.5 76.3867 216 76.3867C215.5 76.3867 215.5 76.3866 215.5 76.3864V76.3852V76.3805L215.5 76.3615L215.5 76.2859C215.5 76.2189 215.499 76.119 215.499 75.9879C215.498 75.7257 215.496 75.3387 215.491 74.8399C215.482 73.8424 215.465 72.3979 215.43 70.6115C215.359 67.0384 215.218 62.0984 214.936 56.6302C214.372 45.679 213.245 32.6611 211.003 24.2508Z" stroke="url(#paint0_linear_76_378)"/>
<path d="M211.003 24.2508L211.003 24.2505C208.565 15.0792 201.38 7.85782 192.26 5.40753L192.26 5.40744C188.101 4.28702 180.766 3.43825 172.061 2.79982C163.37 2.16243 153.356 1.73726 143.863 1.45374C134.372 1.17024 125.405 1.02847 118.812 0.957596C115.515 0.92215 112.812 0.904434 110.933 0.895569C109.993 0.891144 109.26 0.888931 108.762 0.887833C108.659 0.887604 108.566 0.887421 108.484 0.887283C108.366 0.88707 108.269 0.886932 108.194 0.886856L108.049 0.886734L108.012 0.886719H108.003H108.001C108 0.886719 108 0.886719 108 0.386719C108 0.886719 108 0.886719 107.999 0.886719H107.997H107.988L107.951 0.886734L107.806 0.886856C107.678 0.886993 107.488 0.887268 107.238 0.887833C106.74 0.888931 106.007 0.891144 105.067 0.895569C103.188 0.904434 100.485 0.92215 97.1883 0.957596C90.5948 1.02847 81.6286 1.17024 72.1368 1.45374C62.6442 1.73726 52.6299 2.16243 43.939 2.79982C35.234 3.43825 27.8992 4.28702 23.7402 5.40744L23.7399 5.40753C14.6203 7.85782 7.43489 15.0793 4.99679 24.2505L4.99671 24.2508C2.755 32.661 1.62782 45.679 1.06353 56.6302C0.781776 62.0984 0.640877 67.0384 0.570427 70.6115C0.535205 72.3979 0.517597 73.8424 0.508796 74.8399C0.504395 75.3387 0.502196 75.7257 0.501098 75.9879C0.500548 76.119 0.500274 76.2189 0.500137 76.2859L0.500017 76.3615L0.500002 76.3805L0.5 76.3852L0.5 76.3864C0.5 76.3866 0.5 76.3867 0 76.3867C0.5 76.3867 0.5 76.3868 0.5 76.3871L0.5 76.3882L0.500002 76.3929L0.500017 76.4119L0.500137 76.4876C0.500274 76.5546 0.500548 76.6544 0.501098 76.7855C0.502196 77.0477 0.504395 77.4347 0.508796 77.9335C0.517597 78.931 0.535205 80.3755 0.570427 82.1619C0.640877 85.7349 0.781776 90.675 1.06353 96.1432C1.62782 107.094 2.755 120.113 4.99671 128.524L4.99679 128.524C7.43488 137.694 14.6203 144.916 23.7399 147.367L23.7402 147.367C27.8992 148.487 35.234 149.336 43.939 149.974C52.6299 150.611 62.6442 151.036 72.1368 151.32C81.6286 151.603 90.5948 151.745 97.1883 151.816C100.485 151.851 103.188 151.869 105.067 151.878C106.007 151.882 106.74 151.885 107.238 151.886C107.488 151.886 107.678 151.886 107.806 151.887L107.951 151.887L107.988 151.887L107.997 151.887L107.999 151.887C108 151.887 108 151.887 108 152.387C108 151.887 108 151.887 108.001 151.887L108.003 151.887L108.012 151.887L108.049 151.887L108.194 151.887C108.322 151.886 108.512 151.886 108.762 151.886C109.26 151.885 109.993 151.882 110.933 151.878C112.812 151.869 115.515 151.851 118.812 151.816C125.405 151.745 134.372 151.603 143.863 151.32C153.356 151.036 163.37 150.611 172.061 149.974C180.766 149.336 188.101 148.487 192.26 147.367L192.26 147.367C201.38 144.916 208.565 137.694 211.003 128.524L211.003 128.524C213.245 120.113 214.372 107.094 214.936 96.1432C215.218 90.675 215.359 85.7349 215.43 82.1619C215.465 80.3755 215.482 78.931 215.491 77.9335C215.496 77.4347 215.498 77.0477 215.499 76.7855L215.499 76.6531C215.5 76.5851 215.5 76.5298 215.5 76.4876L215.5 76.4119L215.5 76.3929V76.3882V76.3871C215.5 76.3868 215.5 76.3867 216 76.3867C215.5 76.3867 215.5 76.3866 215.5 76.3864V76.3852V76.3805L215.5 76.3615L215.5 76.2859C215.5 76.2189 215.499 76.119 215.499 75.9879C215.498 75.7257 215.496 75.3387 215.491 74.8399C215.482 73.8424 215.465 72.3979 215.43 70.6115C215.359 67.0384 215.218 62.0984 214.936 56.6302C214.372 45.679 213.245 32.6611 211.003 24.2508Z" stroke="url(#paint1_linear_76_378)"/>
</g>
<g style="mix-blend-mode:plus-lighter" filter="url(#filter3_f_76_378)">
<path d="M210.52 24.3796L210.52 24.379C208.127 15.3796 201.077 8.29402 192.13 5.89041L192.13 5.89023C188.023 4.78387 180.733 3.93719 172.024 3.29848C163.344 2.66183 153.338 2.23694 143.848 1.95352C134.361 1.67014 125.398 1.52843 118.806 1.45757C115.511 1.42213 112.809 1.40442 110.931 1.39557C109.991 1.39114 109.259 1.38893 108.76 1.38782C108.511 1.38727 108.321 1.38699 108.193 1.38686L108.048 1.38673L108.012 1.38672H108.003H108.001C108 1.38672 108 1.38672 108 0.386719C108 1.38672 108 1.38672 107.999 1.38672H107.997H107.988L107.952 1.38673L107.807 1.38686C107.679 1.38699 107.489 1.38727 107.24 1.38782C106.742 1.38893 106.009 1.39114 105.069 1.39557C103.191 1.40442 100.489 1.42213 97.1936 1.45757C90.6022 1.52843 81.6394 1.67014 72.1517 1.95352C62.6625 2.23694 52.6562 2.66183 43.9756 3.29848C35.2667 3.93719 27.9771 4.78387 23.8703 5.89023L23.8696 5.8904C14.9237 8.29402 7.87241 15.3796 5.48001 24.3789L5.47984 24.3796C3.25321 32.7333 2.12725 45.703 1.56287 56.6559C1.28145 62.1175 1.14071 67.0521 1.07033 70.6214C1.03515 72.4058 1.01756 73.8484 1.00878 74.8443C1.00438 75.3423 1.00219 75.7285 1.00109 75.99C1.00055 76.1207 1.00027 76.2202 1.00014 76.2869L1.00002 76.3621L1 76.3808L1 76.3854L1 76.3864C1 76.3867 1 76.3867 0 76.3867C1 76.3867 1 76.3868 1 76.387L1 76.3881L1 76.3927L1.00002 76.4114L1.00014 76.4865C1.00027 76.5532 1.00055 76.6527 1.00109 76.7834C1.00219 77.0449 1.00438 77.4311 1.00878 77.9291C1.01756 78.925 1.03515 80.3676 1.07033 82.152C1.14071 85.7213 1.28145 90.6559 1.56287 96.1174C2.12725 107.07 3.25321 120.04 5.47985 128.395L5.48 128.396C7.87239 137.394 14.9237 144.479 23.8697 146.884L23.8702 146.884C27.977 147.99 35.2667 148.837 43.9756 149.475C52.6562 150.112 62.6625 150.537 72.1517 150.82C81.6394 151.103 90.6022 151.245 97.1936 151.316C100.489 151.351 103.191 151.369 105.069 151.378C106.009 151.382 106.742 151.385 107.24 151.386C107.489 151.386 107.679 151.386 107.807 151.387L107.952 151.387L107.988 151.387L107.997 151.387L107.999 151.387C108 151.387 108 151.387 108 152.387C108 151.387 108 151.387 108.001 151.387L108.003 151.387L108.012 151.387L108.048 151.387L108.193 151.387C108.321 151.386 108.511 151.386 108.76 151.386C109.259 151.385 109.991 151.382 110.931 151.378C112.809 151.369 115.511 151.351 118.806 151.316C125.398 151.245 134.361 151.103 143.848 150.82C153.338 150.537 163.344 150.112 172.025 149.475C180.733 148.837 188.023 147.99 192.13 146.884L192.13 146.884C201.077 144.479 208.127 137.394 210.52 128.396L210.52 128.395C212.747 120.04 213.873 107.07 214.437 96.1174C214.719 90.6559 214.859 85.7213 214.93 82.152C214.965 80.3676 214.982 78.925 214.991 77.9291C214.996 77.4311 214.998 77.0449 214.999 76.7834C214.999 76.6527 215 76.5532 215 76.4865L215 76.4114L215 76.3927V76.3881V76.387C215 76.387 215 76.3869 215.007 76.3869C215.036 76.3868 215.19 76.3867 216 76.3867C215 76.3867 215 76.3867 215 76.3864V76.3854V76.3808L215 76.3621L215 76.2869C215 76.2202 214.999 76.1207 214.999 75.99C214.998 75.7285 214.996 75.3423 214.991 74.8443C214.982 73.8484 214.965 72.4058 214.93 70.6214C214.859 67.0521 214.719 62.1175 214.437 56.6559C213.873 45.703 212.747 32.7333 210.52 24.3796Z" stroke="url(#paint2_linear_76_378)" stroke-width="2"/>
</g>
<g style="mix-blend-mode:plus-lighter" filter="url(#filter4_f_76_378)">
<path d="M209.554 24.6372L209.553 24.6359C207.252 15.9802 200.47 9.16643 191.871 6.85616L191.869 6.8558C187.867 5.77759 180.668 4.93509 171.951 4.29581C163.291 3.66066 153.301 3.2363 143.819 2.95306C134.339 2.66994 125.383 2.52832 118.796 2.4575C115.502 2.4221 112.802 2.4044 110.926 2.39555C109.988 2.39114 109.256 2.38893 108.758 2.38782C108.51 2.38727 108.32 2.38699 108.192 2.38686L108.048 2.38673L108.012 2.38672H108.003H108.001C108 2.38672 108 2.38672 108 0.386719C108 2.38672 108 2.38672 107.999 2.38672H107.997H107.988L107.952 2.38673L107.808 2.38686C107.68 2.38699 107.49 2.38727 107.242 2.38782C106.744 2.38893 106.012 2.39114 105.074 2.39555C103.198 2.4044 100.498 2.4221 97.2044 2.4575C90.6171 2.52832 81.661 2.66994 72.1816 2.95306C62.699 3.2363 52.7089 3.66066 44.0488 4.29581C35.3321 4.93509 28.1328 5.77759 24.1304 6.8558L24.1291 6.85616C15.5306 9.16644 8.74745 15.9803 6.44644 24.6358L6.44611 24.6371C4.24962 32.8777 3.1261 45.7511 2.56155 56.7074C2.28081 62.1558 2.14036 67.0794 2.07014 70.6411C2.03503 72.4215 2.0175 73.8604 2.00874 74.8532C2.00436 75.3495 2.00217 75.7342 2.00108 75.9942C2.00054 76.1242 2.00027 76.223 2.00013 76.2889L2.00002 76.3631L2 76.3813L2 76.3856L2 76.3866C2 76.3867 2 76.3867 0 76.3867C2 76.3867 2 76.3867 2 76.3869L2 76.3878L2 76.3922L2.00002 76.4104L2.00013 76.4845C2.00027 76.5505 2.00054 76.6493 2.00108 76.7793C2.00217 77.0392 2.00436 77.4239 2.00874 77.9203C2.0175 78.913 2.03503 80.3519 2.07014 82.1323C2.14036 85.694 2.28081 90.6176 2.56155 96.066C3.1261 107.022 4.24962 119.896 6.44612 128.137L6.44643 128.139C8.7474 136.793 15.5306 143.607 24.1293 145.918L24.1303 145.919C28.1327 146.997 35.3321 147.839 44.0487 148.478C52.7089 149.113 62.699 149.537 72.1816 149.82C81.661 150.104 90.6171 150.245 97.2044 150.316C100.498 150.351 103.198 150.369 105.074 150.378C106.012 150.382 106.744 150.385 107.242 150.386C107.49 150.386 107.68 150.386 107.808 150.387L107.952 150.387L107.988 150.387L107.997 150.387L107.999 150.387C108 150.387 108 150.387 108 152.387C108 150.387 108 150.387 108.001 150.387L108.003 150.387L108.012 150.387L108.048 150.387L108.192 150.387C108.32 150.386 108.51 150.386 108.758 150.386C109.256 150.385 109.988 150.382 110.926 150.378C112.802 150.369 115.502 150.351 118.796 150.316C125.383 150.245 134.339 150.104 143.819 149.82C153.301 149.537 163.291 149.113 171.951 148.478C180.668 147.839 187.867 146.997 191.87 145.919L191.871 145.918C200.47 143.607 207.252 136.793 209.553 128.139L209.554 128.137C211.75 119.896 212.874 107.022 213.438 96.066C213.719 90.6176 213.86 85.694 213.93 82.1323C213.965 80.3519 213.982 78.913 213.991 77.9203C213.996 77.4239 213.998 77.0392 213.999 76.7793C213.999 76.6493 214 76.5505 214 76.4845L214 76.4104L214 76.3922V76.3878V76.3869C214 76.3867 214 76.3867 216 76.3867C214 76.3867 214 76.3867 214 76.3866V76.3856V76.3813L214 76.3631L214 76.2889C214 76.223 213.999 76.1242 213.999 75.9942C213.998 75.7342 213.996 75.3495 213.991 74.8532C213.982 73.8604 213.965 72.4215 213.93 70.6411C213.86 67.0794 213.719 62.1558 213.438 56.7074C212.874 45.7511 211.75 32.8777 209.554 24.6372Z" stroke="url(#paint3_linear_76_378)" stroke-width="4"/>
</g>
<path d="M211.486 24.122C209.002 14.7789 201.684 7.42162 192.39 4.92465C175.545 0.386719 108 0.386719 108 0.386719C108 0.386719 40.455 0.386719 23.6101 4.92465C14.3169 7.42162 6.99737 14.7789 4.51358 24.122C0 41.0557 0 76.3867 0 76.3867C0 76.3867 0 111.717 4.51358 128.653C6.99737 137.995 14.3169 145.352 23.6101 147.85C40.455 152.387 108 152.387 108 152.387C108 152.387 175.545 152.387 192.39 147.85C201.684 145.352 209.002 137.995 211.486 128.653C216 111.717 216 76.3867 216 76.3867C216 76.3867 216 41.0557 211.486 24.122Z" fill="url(#paint4_linear_76_378)" style="mix-blend-mode:overlay"/>
<g style="mix-blend-mode:color-dodge" opacity="0.16" filter="url(#filter5_f_76_378)">
<path d="M203.82 29.6196C201.52 21.26 194.744 14.6771 186.139 12.443C170.542 8.38274 108 18.3827 108 18.3827C108 18.3827 45.4583 8.38274 29.8612 12.443C21.2564 14.6771 14.479 21.26 12.1792 29.6196C8 44.7708 8 76.3827 8 76.3827C8 76.3827 8 107.994 12.1792 123.147C14.479 131.506 21.2564 138.088 29.8612 140.323C45.4583 144.383 108 134.383 108 134.383C108 134.383 170.542 144.383 186.139 140.323C194.744 138.088 201.52 131.506 203.82 123.147C208 107.994 208 76.3827 208 76.3827C208 76.3827 208 44.7708 203.82 29.6196Z" fill="url(#paint5_linear_76_378)"/>
</g>
<g style="mix-blend-mode:overlay" filter="url(#filter6_f_76_378)">
<circle cx="108" cy="76.3867" r="48" fill="white"/>
</g>
<g filter="url(#filter7_dddddd_76_378)">
<g clip-path="url(#clip1_76_378)">
<path fill-rule="evenodd" clip-rule="evenodd" d="M107.857 29.3662C81.3933 29.3662 60 50.9172 60 77.5788C60 98.8908 73.7074 116.931 92.7233 123.316C95.1007 123.796 95.9716 122.279 95.9716 121.002C95.9716 119.884 95.8932 116.053 95.8932 112.061C82.5806 114.936 79.8083 106.314 79.8083 106.314C77.6689 100.727 74.4989 99.2905 74.4989 99.2905C70.1417 96.337 74.8163 96.337 74.8163 96.337C79.6496 96.6563 82.1858 101.286 82.1858 101.286C86.4637 108.629 93.3571 106.554 96.1303 105.277C96.526 102.164 97.7946 100.008 99.1416 98.8114C88.5238 97.6937 77.3525 93.5432 77.3525 75.024C77.3525 69.7558 79.2529 65.4456 82.2642 62.0934C81.7891 60.8963 80.1247 55.9465 82.7402 49.3215C82.7402 49.3215 86.7811 48.0441 95.8922 54.2704C99.7931 53.215 103.816 52.6782 107.857 52.6736C111.898 52.6736 116.017 53.233 119.821 54.2704C128.933 48.0441 132.974 49.3215 132.974 49.3215C135.589 55.9465 133.924 60.8963 133.449 62.0934C136.539 65.4456 138.361 69.7558 138.361 75.024C138.361 93.5432 127.19 97.6134 116.493 98.8114C118.237 100.328 119.741 103.201 119.741 107.751C119.741 114.216 119.663 119.405 119.663 121.001C119.663 122.279 120.535 123.796 122.911 123.317C141.927 116.93 155.635 98.8908 155.635 77.5788C155.713 50.9172 134.241 29.3662 107.857 29.3662Z" fill="white"/>
</g>
</g>
</g>
</g>
<defs>
<filter id="filter0_ii_76_378" x="-8" y="-7.61328" width="232" height="168" filterUnits="userSpaceOnUse" color-interpolation-filters="sRGB">
<feFlood flood-opacity="0" result="BackgroundImageFix"/>
<feBlend mode="normal" in="SourceGraphic" in2="BackgroundImageFix" result="shape"/>
<feColorMatrix in="SourceAlpha" type="matrix" values="0 0 0 0 0 0 0 0 0 0 0 0 0 0 0 0 0 0 127 0" result="hardAlpha"/>
<feOffset dx="8" dy="8"/>
<feGaussianBlur stdDeviation="8"/>
<feComposite in2="hardAlpha" operator="arithmetic" k2="-1" k3="1"/>
<feColorMatrix type="matrix" values="0 0 0 0 0 0 0 0 0 0 0 0 0 0 0 0 0 0 0.16 0"/>
<feBlend mode="normal" in2="shape" result="effect1_innerShadow_76_378"/>
<feColorMatrix in="SourceAlpha" type="matrix" values="0 0 0 0 0 0 0 0 0 0 0 0 0 0 0 0 0 0 127 0" result="hardAlpha"/>
<feOffset dx="-8" dy="-8"/>
<feGaussianBlur stdDeviation="8"/>
<feComposite in2="hardAlpha" operator="arithmetic" k2="-1" k3="1"/>
<feColorMatrix type="matrix" values="0 0 0 0 0 0 0 0 0 0 0 0 0 0 0 0 0 0 0.32 0"/>
<feBlend mode="normal" in2="effect1_innerShadow_76_378" result="effect2_innerShadow_76_378"/>
</filter>
<filter id="filter1_ii_76_378" x="-8" y="-7.61328" width="232" height="168" filterUnits="userSpaceOnUse" color-interpolation-filters="sRGB">
<feFlood flood-opacity="0" result="BackgroundImageFix"/>
<feBlend mode="normal" in="SourceGraphic" in2="BackgroundImageFix" result="shape"/>
<feColorMatrix in="SourceAlpha" type="matrix" values="0 0 0 0 0 0 0 0 0 0 0 0 0 0 0 0 0 0 127 0" result="hardAlpha"/>
<feOffset dx="8" dy="8"/>
<feGaussianBlur stdDeviation="8"/>
<feComposite in2="hardAlpha" operator="arithmetic" k2="-1" k3="1"/>
<feColorMatrix type="matrix" values="0 0 0 0 0 0 0 0 0 0 0 0 0 0 0 0 0 0 0.16 0"/>
<feBlend mode="normal" in2="shape" result="effect1_innerShadow_76_378"/>
<feColorMatrix in="SourceAlpha" type="matrix" values="0 0 0 0 0 0 0 0 0 0 0 0 0 0 0 0 0 0 127 0" result="hardAlpha"/>
<feOffset dx="-8" dy="-8"/>
<feGaussianBlur stdDeviation="8"/>
<feComposite in2="hardAlpha" operator="arithmetic" k2="-1" k3="1"/>
<feColorMatrix type="matrix" values="0 0 0 0 0 0 0 0 0 0 0 0 0 0 0 0 0 0 0.32 0"/>
<feBlend mode="normal" in2="effect1_innerShadow_76_378" result="effect2_innerShadow_76_378"/>
</filter>
<filter id="filter2_f_76_378" x="-6" y="-5.61328" width="228" height="164" filterUnits="userSpaceOnUse" color-interpolation-filters="sRGB">
<feFlood flood-opacity="0" result="BackgroundImageFix"/>
<feBlend mode="normal" in="SourceGraphic" in2="BackgroundImageFix" result="shape"/>
<feGaussianBlur stdDeviation="3" result="effect1_foregroundBlur_76_378"/>
</filter>
<filter id="filter3_f_76_378" x="-4" y="-3.61328" width="224" height="160" filterUnits="userSpaceOnUse" color-interpolation-filters="sRGB">
<feFlood flood-opacity="0" result="BackgroundImageFix"/>
<feBlend mode="normal" in="SourceGraphic" in2="BackgroundImageFix" result="shape"/>
<feGaussianBlur stdDeviation="2" result="effect1_foregroundBlur_76_378"/>
</filter>
<filter id="filter4_f_76_378" x="-8" y="-7.61328" width="232" height="168" filterUnits="userSpaceOnUse" color-interpolation-filters="sRGB">
<feFlood flood-opacity="0" result="BackgroundImageFix"/>
<feBlend mode="normal" in="SourceGraphic" in2="BackgroundImageFix" result="shape"/>
<feGaussianBlur stdDeviation="4" result="effect1_foregroundBlur_76_378"/>
</filter>
<filter id="filter5_f_76_378" x="-8" y="-4.52686" width="232" height="161.82" filterUnits="userSpaceOnUse" color-interpolation-filters="sRGB">
<feFlood flood-opacity="0" result="BackgroundImageFix"/>
<feBlend mode="normal" in="SourceGraphic" in2="BackgroundImageFix" result="shape"/>
<feGaussianBlur stdDeviation="8" result="effect1_foregroundBlur_76_378"/>
</filter>
<filter id="filter6_f_76_378" x="-36" y="-67.6133" width="288" height="288" filterUnits="userSpaceOnUse" color-interpolation-filters="sRGB">
<feFlood flood-opacity="0" result="BackgroundImageFix"/>
<feBlend mode="normal" in="SourceGraphic" in2="BackgroundImageFix" result="shape"/>
<feGaussianBlur stdDeviation="48" result="effect1_foregroundBlur_76_378"/>
</filter>
<filter id="filter7_dddddd_76_378" x="28" y="12.3867" width="160" height="160" filterUnits="userSpaceOnUse" color-interpolation-filters="sRGB">
<feFlood flood-opacity="0" result="BackgroundImageFix"/>
<feColorMatrix in="SourceAlpha" type="matrix" values="0 0 0 0 0 0 0 0 0 0 0 0 0 0 0 0 0 0 127 0" result="hardAlpha"/>
<feOffset dx="4" dy="4"/>
<feGaussianBlur stdDeviation="4"/>
<feComposite in2="hardAlpha" operator="out"/>
<feColorMatrix type="matrix" values="0 0 0 0 0 0 0 0 0 0 0 0 0 0 0 0 0 0 0.16 0"/>
<feBlend mode="color-burn" in2="BackgroundImageFix" result="effect1_dropShadow_76_378"/>
<feColorMatrix in="SourceAlpha" type="matrix" values="0 0 0 0 0 0 0 0 0 0 0 0 0 0 0 0 0 0 127 0" result="hardAlpha"/>
<feOffset dx="4" dy="4"/>
<feGaussianBlur stdDeviation="4"/>
<feComposite in2="hardAlpha" operator="out"/>
<feColorMatrix type="matrix" values="0 0 0 0 0 0 0 0 0 0 0 0 0 0 0 0 0 0 0.04 0"/>
<feBlend mode="color-burn" in2="effect1_dropShadow_76_378" result="effect2_dropShadow_76_378"/>
<feColorMatrix in="SourceAlpha" type="matrix" values="0 0 0 0 0 0 0 0 0 0 0 0 0 0 0 0 0 0 127 0" result="hardAlpha"/>
<feOffset dx="4" dy="4"/>
<feGaussianBlur stdDeviation="4"/>
<feComposite in2="hardAlpha" operator="out"/>
<feColorMatrix type="matrix" values="0 0 0 0 0 0 0 0 0 0 0 0 0 0 0 0 0 0 0.04 0"/>
<feBlend mode="color-burn" in2="effect2_dropShadow_76_378" result="effect3_dropShadow_76_378"/>
<feColorMatrix in="SourceAlpha" type="matrix" values="0 0 0 0 0 0 0 0 0 0 0 0 0 0 0 0 0 0 127 0" result="hardAlpha"/>
<feOffset dy="16"/>
<feGaussianBlur stdDeviation="16"/>
<feComposite in2="hardAlpha" operator="out"/>
<feColorMatrix type="matrix" values="0 0 0 0 0 0 0 0 0 0 0 0 0 0 0 0 0 0 0.16 0"/>
<feBlend mode="multiply" in2="effect3_dropShadow_76_378" result="effect4_dropShadow_76_378"/>
<feColorMatrix in="SourceAlpha" type="matrix" values="0 0 0 0 0 0 0 0 0 0 0 0 0 0 0 0 0 0 127 0" result="hardAlpha"/>
<feOffset dy="16"/>
<feGaussianBlur stdDeviation="16"/>
<feComposite in2="hardAlpha" operator="out"/>
<feColorMatrix type="matrix" values="0 0 0 0 0 0 0 0 0 0 0 0 0 0 0 0 0 0 0.04 0"/>
<feBlend mode="multiply" in2="effect4_dropShadow_76_378" result="effect5_dropShadow_76_378"/>
<feColorMatrix in="SourceAlpha" type="matrix" values="0 0 0 0 0 0 0 0 0 0 0 0 0 0 0 0 0 0 127 0" result="hardAlpha"/>
<feOffset dy="16"/>
<feGaussianBlur stdDeviation="16"/>
<feComposite in2="hardAlpha" operator="out"/>
<feColorMatrix type="matrix" values="0 0 0 0 0 0 0 0 0 0 0 0 0 0 0 0 0 0 0.04 0"/>
<feBlend mode="multiply" in2="effect5_dropShadow_76_378" result="effect6_dropShadow_76_378"/>
<feBlend mode="normal" in="SourceGraphic" in2="effect6_dropShadow_76_378" result="shape"/>
</filter>
<linearGradient id="paint0_linear_76_378" x1="216" y1="36.3867" x2="177.5" y2="39.8867" gradientUnits="userSpaceOnUse">
<stop stop-color="white"/>
<stop offset="0.5" stop-color="white" stop-opacity="0"/>
<stop offset="0.75" stop-color="white" stop-opacity="0"/>
<stop offset="1" stop-color="white" stop-opacity="0"/>
</linearGradient>
<linearGradient id="paint1_linear_76_378" x1="216" y1="36.3867" x2="177.5" y2="39.8867" gradientUnits="userSpaceOnUse">
<stop stop-color="white"/>
<stop offset="0.5" stop-color="white" stop-opacity="0"/>
<stop offset="0.75" stop-color="white" stop-opacity="0"/>
<stop offset="1" stop-color="white" stop-opacity="0"/>
</linearGradient>
<linearGradient id="paint2_linear_76_378" x1="209" y1="-7.6133" x2="177.5" y2="39.8867" gradientUnits="userSpaceOnUse">
<stop stop-color="white"/>
<stop offset="0.5" stop-color="white" stop-opacity="0"/>
<stop offset="0.75" stop-color="white" stop-opacity="0"/>
<stop offset="1" stop-color="white" stop-opacity="0"/>
</linearGradient>
<linearGradient id="paint3_linear_76_378" x1="210.06" y1="-23.571" x2="173.5" y2="76.3867" gradientUnits="userSpaceOnUse">
<stop stop-color="white"/>
<stop offset="0.5" stop-color="white" stop-opacity="0"/>
<stop offset="0.75" stop-color="white" stop-opacity="0"/>
<stop offset="1" stop-color="white" stop-opacity="0"/>
</linearGradient>
<linearGradient id="paint4_linear_76_378" x1="-1.60933e-06" y1="0.386721" x2="108" y2="76.3867" gradientUnits="userSpaceOnUse">
<stop stop-color="white"/>
<stop offset="1" stop-color="white" stop-opacity="0"/>
</linearGradient>
<linearGradient id="paint5_linear_76_378" x1="8" y1="76.3827" x2="208" y2="76.3827" gradientUnits="userSpaceOnUse">
<stop stop-color="white"/>
<stop offset="1" stop-color="white" stop-opacity="0"/>
</linearGradient>
<clipPath id="clip0_76_378">
<rect width="216" height="152" fill="white" transform="translate(0 0.386719)"/>
</clipPath>
<clipPath id="clip1_76_378">
<rect width="96" height="94.0408" fill="white" transform="translate(60 29.3662)"/>
</clipPath>
</defs>
</svg>
