<svg width="31" height="27" viewBox="0 0 31 27" fill="none" xmlns="http://www.w3.org/2000/svg">
<g id="Bluesky_logo_(black) 1" clip-path="url(#clip0_484_214)">
<path id="Vector" d="M7.5029 1.81743C10.9423 4.45679 14.6418 9.8083 16.0001 12.6802C17.3585 9.80851 21.0577 4.45673 24.4973 1.81743C26.979 -0.0870204 31 -1.56058 31 3.12836C31 4.0648 30.4747 10.995 30.1667 12.1201C29.0958 16.0316 25.1937 17.0293 21.7228 16.4255C27.79 17.481 29.3334 20.9772 26.0002 24.4734C19.6697 31.1135 16.9014 22.8074 16.1918 20.6791C16.0617 20.289 16.0009 20.1064 16 20.2616C15.9991 20.1064 15.9383 20.289 15.8082 20.6791C15.0989 22.8074 12.3307 31.1137 5.99983 24.4734C2.66654 20.9772 4.20993 17.4808 10.2772 16.4255C6.80616 17.0293 2.90401 16.0316 1.83332 12.1201C1.52525 10.9949 1 4.0647 1 3.12836C1 -1.56058 5.02111 -0.0870204 7.50272 1.81743H7.5029Z" fill="white"/>
</g>
<defs>
<clipPath id="clip0_484_214">
<rect width="30" height="27" fill="white" transform="translate(0.5)"/>
</clipPath>
</defs>
</svg>
