<svg width="32" height="28" viewBox="0 0 32 28" fill="none" xmlns="http://www.w3.org/2000/svg">
<g id="dou-logo 2" clip-path="url(#clip0_479_241)">
<path id="Vector" d="M31.0455 14.2445C31.0455 17.4958 28.9641 18.8177 26.6681 18.8177C23.913 18.8177 21.9999 17.2527 21.9999 14.1382V8H24.449V13.6216C24.449 15.2777 24.9538 16.5388 26.6681 16.5388C28.1529 16.5388 28.5967 15.46 28.5967 13.7586V8H31.0458L31.0455 14.2445Z" fill="white"/>
<path id="Vector_2" d="M1 8.04558H1.21429C1.78062 8.04558 3.67861 8 4.38245 8C8.66798 8 10.3976 10.4462 10.3976 13.2721C10.3976 16.2501 8.3468 18.7113 4.26 18.7113C3.69366 18.7113 2.28548 18.6809 1.26021 18.6809H1V8.04558ZM3.44902 10.3244V16.4018C3.77045 16.4322 3.98474 16.4322 4.33653 16.4322C6.44881 16.4322 7.79577 15.2929 7.79577 13.2721C7.79577 11.3123 6.34166 10.2791 4.35209 10.2791C4.09188 10.2791 3.75514 10.2789 3.44902 10.3244Z" fill="white"/>
<path id="Vector_3" d="M16.1478 8C19.4078 8 21.8415 10.112 21.8415 13.5C21.8415 16.7209 19.4078 19 16.1478 19C12.8878 19 10.4541 16.8883 10.4541 13.5C10.4541 10.4156 12.7345 8 16.1478 8ZM16.1478 16.7209C18.1836 16.7209 19.2394 15.2926 19.2394 13.5C19.2394 11.5552 17.8772 10.2789 16.1478 10.2789C14.3723 10.2789 13.0562 11.5552 13.0562 13.5C13.0562 15.3233 14.4335 16.7209 16.1478 16.7209Z" fill="white"/>
</g>
<defs>
<clipPath id="clip0_479_241">
<rect width="31" height="28" fill="white" transform="translate(0.5)"/>
</clipPath>
</defs>
</svg>
