<svg width="33" height="32" viewBox="0 0 33 32" fill="none" xmlns="http://www.w3.org/2000/svg">
<g id="icons8-epic-games 1">
<path id="Vector" d="M6.90055 1.92908C4.78751 1.92908 3.06055 3.65604 3.06055 5.76908V26.4053L16.5005 30.4378L29.9405 26.4053V25.9291V5.76908C29.9405 3.65604 28.2136 1.92908 26.1005 1.92908H6.90055ZM6.90055 3.20908H26.1005C27.5216 3.20908 28.6605 4.34804 28.6605 5.76908V25.4528L16.5005 29.1003L4.34055 25.4528V5.76908C4.34055 4.34804 5.47951 3.20908 6.90055 3.20908ZM7.54055 5.12908C6.48007 5.12908 5.62055 5.9886 5.62055 7.04908V17.9291C5.62055 18.9896 6.48007 19.8491 7.54055 19.8491H10.1005V17.9291H7.54055V13.4491H9.46055V11.5291H7.54055V7.04908H10.1005V5.12908H7.54055ZM11.3805 5.12908V19.8491H13.3005V13.4491H15.2205C16.281 13.4491 17.1405 12.5896 17.1405 11.5291V7.04908C17.1405 5.9886 16.281 5.12908 15.2205 5.12908H11.3805ZM18.4205 5.12908V19.8491H20.3405V5.12908H18.4205ZM23.5405 5.12908C22.4801 5.12908 21.6205 5.9886 21.6205 7.04908V17.9291C21.6205 18.9896 22.4801 19.8491 23.5405 19.8491H25.4605C26.521 19.8491 27.3805 18.9896 27.3805 17.9291V15.3691H25.4605V17.9291H23.5405V7.04908H25.4605V9.60908H27.3805V7.04908C27.3805 5.9886 26.521 5.12908 25.4605 5.12908H23.5405ZM13.3005 7.04908H15.2205V11.5291H13.3005V7.04908ZM6.26055 21.1291C5.90727 21.1291 5.62055 21.4158 5.62055 21.7691V24.3291C5.62055 24.6824 5.90727 24.9691 6.26055 24.9691H8.82055C9.17383 24.9691 9.46055 24.6824 9.46055 24.3291V23.0491H8.18055V23.6891H8.82055V24.1691C8.82055 24.2574 8.74887 24.3291 8.66055 24.3291H6.42055C6.33223 24.3291 6.26055 24.2574 6.26055 24.1691V21.9291C6.26055 21.8408 6.33223 21.7691 6.42055 21.7691H8.66055C8.74887 21.7691 8.82055 21.8408 8.82055 21.9291V22.4091H9.46055V21.7691C9.46055 21.4158 9.17383 21.1291 8.82055 21.1291H6.26055ZM12.0205 21.1291L10.1005 24.9691H10.7405L11.0605 24.3291H13.6205L13.9405 24.9691H14.5805L12.6605 21.1291H12.0205ZM15.2205 21.1291V24.9691H15.8605V22.4091L16.8205 24.3291H17.4605L18.4205 22.4091V24.9691H19.0605V21.1291H18.4205L17.1405 23.6891L15.8605 21.1291H15.2205ZM19.7005 21.1291V21.7691V24.3291V24.9691H20.3405H22.9005V24.3291H20.3405V23.3691H21.6205V22.7291H20.3405V21.7691H22.9005V21.1291H20.3405H19.7005ZM24.1805 21.1291C23.8273 21.1291 23.5405 21.4158 23.5405 21.7691V22.7291C23.5405 23.0824 23.8273 23.3691 24.1805 23.3691H26.5805C26.6689 23.3691 26.7405 23.4408 26.7405 23.5291V24.1691C26.7405 24.2574 26.6689 24.3291 26.5805 24.3291H24.3405C24.2522 24.3291 24.1805 24.2574 24.1805 24.1691V24.0091H23.5405V24.3291C23.5405 24.6824 23.8273 24.9691 24.1805 24.9691H26.7405C27.0938 24.9691 27.3805 24.6824 27.3805 24.3291V23.3691C27.3805 23.0158 27.0938 22.7291 26.7405 22.7291H24.3405C24.2522 22.7291 24.1805 22.6574 24.1805 22.5691V21.9291C24.1805 21.8408 24.2522 21.7691 24.3405 21.7691H26.5805C26.6689 21.7691 26.7405 21.8408 26.7405 21.9291V22.0891H27.3805V21.7691C27.3805 21.4158 27.0938 21.1291 26.7405 21.1291H24.1805ZM12.3405 21.7691L13.3005 23.6891H11.3805L12.3405 21.7691Z" fill="white"/>
</g>
</svg>
