<svg width="31" height="30" viewBox="0 0 31 30" fill="none" xmlns="http://www.w3.org/2000/svg">
<g id="Social Icons" clip-path="url(#clip0_303_385)">
<path id="Vector" d="M15.5 0C7.2158 0 0.5 6.7158 0.5 15C0.5 22.0344 5.3432 27.9372 11.8766 29.5584V19.584H8.7836V15H11.8766V13.0248C11.8766 7.9194 14.1872 5.553 19.1996 5.553C20.15 5.553 21.7898 5.7396 22.4606 5.9256V10.0806C22.1066 10.0434 21.4916 10.0248 20.7278 10.0248C18.2684 10.0248 17.318 10.9566 17.318 13.3788V15H22.2176L21.3758 19.584H17.318V29.8902C24.7454 28.9932 30.5006 22.6692 30.5006 15C30.5 6.7158 23.7842 0 15.5 0Z" fill="white"/>
</g>
<defs>
<clipPath id="clip0_303_385">
<rect width="30" height="30" fill="white" transform="translate(0.5)"/>
</clipPath>
</defs>
</svg>
