<svg width="31" height="30" viewBox="0 0 31 30" fill="none" xmlns="http://www.w3.org/2000/svg">
<g id="Figma-logo 1">
<path id="path0_fill" d="M10.999 30C13.7584 30 15.998 27.76 15.998 25V20H10.999C8.23955 20 6 22.24 6 25C6 27.76 8.23955 30 10.999 30Z" fill="white"/>
<path id="path1_fill" d="M6 15C6 12.24 8.23955 10 10.999 10H15.998V20H10.999C8.23955 20 6 17.76 6 15Z" fill="white"/>
<path id="path1_fill_1_" d="M6 5C6 2.24 8.23955 0 10.999 0H15.998V10H10.999C8.23955 10 6 7.76 6 5Z" fill="white"/>
<path id="path2_fill" d="M15.998 0H20.997C23.7565 0 25.996 2.24 25.996 5C25.996 7.76 23.7565 10 20.997 10H15.998V0Z" fill="white"/>
<path id="path3_fill" d="M25.996 15C25.996 17.76 23.7565 20 20.997 20C18.2376 20 15.998 17.76 15.998 15C15.998 12.24 18.2376 10 20.997 10C23.7565 10 25.996 12.24 25.996 15Z" fill="white"/>
</g>
</svg>
