<svg width="31" height="27" viewBox="0 0 31 27" fill="none" xmlns="http://www.w3.org/2000/svg">
<path id="Vector" d="M4.43048 0.217628C3.14706 1.01977 0.5 3.98768 0.5 4.70961V5.99303C0.5 7.67752 2.02406 9.04116 3.3877 9.04116C5.07219 9.04116 6.43583 7.67752 6.43583 6.07324C6.43583 7.67752 7.79947 9.04116 9.48396 9.04116C11.0882 9.04116 12.3717 7.67752 12.3717 6.07324C12.3717 7.67752 13.8155 9.04116 15.5 9.04116C17.1845 9.04116 18.6283 7.67752 18.6283 6.07324C18.6283 7.67752 19.9118 9.04116 21.516 9.04116C23.2005 9.04116 24.5642 7.67752 24.5642 6.07324C24.5642 7.67752 25.9278 9.04116 27.6123 9.04116C28.9759 9.04116 30.5 7.67752 30.5 5.99303V4.70961C30.5 3.98768 27.8529 1.01977 26.5695 0.217628C19.1927 -0.0725427 11.8073 -0.0725427 4.43048 0.217628ZM12.3717 8.31923L11.8102 9.04116C11.4356 9.42051 10.9781 9.70787 10.4738 9.88066C9.96939 10.0534 9.43184 10.107 8.90331 10.037C8.37478 9.96707 7.86966 9.77554 7.42761 9.47749C6.98556 9.17944 6.61863 8.78298 6.35562 8.31923L5.79412 9.04116C5.15241 9.68287 4.27005 10.0839 3.30749 10.0839L2.98663 10.0037L2.8262 13.6936V15.1374C2.8262 18.0251 2.50535 24.6027 4.10963 26.2069C6.51604 26.7684 11.008 27.0091 15.5 27.0091C19.992 27.0091 24.484 26.7684 26.8904 26.2069C28.4947 24.6027 28.1738 18.0251 28.1738 15.1374V13.6936L28.0134 10.0037L27.6925 10.0839C26.7299 10.0839 25.8476 9.68287 25.2059 9.04116L24.6444 8.31923L24.0829 9.04116C23.7083 9.42051 23.2508 9.70787 22.7465 9.88066C22.2421 10.0534 21.7046 10.107 21.176 10.037C20.6475 9.96707 20.1424 9.77554 19.7003 9.47749C19.2583 9.17944 18.8914 8.78298 18.6283 8.31923C18.3257 8.86011 17.8829 9.30944 17.3465 9.61998C16.8101 9.93052 16.2 10.0908 15.5802 10.0839H15.5H15.4198C14.8 10.0908 14.1899 9.93052 13.6535 9.61998C13.1171 9.30944 12.6743 8.86011 12.3717 8.31923ZM9.88503 11.5278C10.8476 11.5278 11.7299 11.5278 12.8529 12.731L15.5 12.5706L18.1471 12.731C19.2701 11.5278 20.1524 11.5278 21.115 11.5278C21.5963 11.5278 23.4412 11.5278 24.7246 15.2176L26.1684 20.2711C27.2112 23.9609 25.8476 24.0412 24.0829 24.0412C21.5963 23.9609 20.1524 22.116 20.1524 20.2711C17.0438 20.7675 13.876 20.7675 10.7674 20.2711C10.8476 22.116 9.40374 23.9609 6.91711 24.0412C5.15241 24.0412 3.78877 23.9609 4.83155 20.2711L6.2754 15.2176C7.55882 11.5278 9.40374 11.5278 9.88503 11.5278ZM15.5 14.4155C15.5 14.4155 12.8529 16.9021 12.3717 17.7845L14.1364 17.7043V19.2283H16.8636V17.7043L18.6283 17.7845C18.1471 16.9021 15.5 14.4155 15.5 14.4155Z" fill="white"/>
</svg>
