<svg width="31" height="30" viewBox="0 0 31 30" fill="none" xmlns="http://www.w3.org/2000/svg">
<g id="Social Icons" clip-path="url(#clip0_303_369)">
<path id="Vector" d="M15.5 0C7.21484 0 0.5 6.71484 0.5 15C0.5 21.3574 4.45508 26.7832 10.0332 28.9687C9.9043 27.7793 9.78125 25.9629 10.0859 24.668C10.3613 23.4961 11.8438 17.2148 11.8438 17.2148C11.8438 17.2148 11.3926 16.3184 11.3926 14.9883C11.3926 12.9023 12.5996 11.3438 14.1055 11.3438C15.3828 11.3438 16.0039 12.3047 16.0039 13.459C16.0039 14.748 15.1836 16.6699 14.7617 18.4512C14.4102 19.9453 15.5117 21.1641 16.9824 21.1641C19.6484 21.1641 21.6992 18.3516 21.6992 14.2969C21.6992 10.7051 19.1211 8.19141 15.4355 8.19141C11.1699 8.19141 8.66211 11.3906 8.66211 14.7012C8.66211 15.9902 9.16016 17.373 9.78125 18.123C9.9043 18.2695 9.92187 18.4043 9.88672 18.5508C9.77539 19.0254 9.51758 20.0449 9.4707 20.25C9.40625 20.5254 9.25391 20.584 8.9668 20.4492C7.0918 19.5762 5.91992 16.8398 5.91992 14.6367C5.91992 9.90234 9.35938 5.56055 15.8281 5.56055C21.0313 5.56055 25.0742 9.26953 25.0742 14.2266C25.0742 19.3945 21.8164 23.5547 17.293 23.5547C15.7754 23.5547 14.3457 22.7637 13.8535 21.832C13.8535 21.832 13.1035 24.6973 12.9219 25.4004C12.582 26.7012 11.668 28.3359 11.0586 29.332C12.4648 29.7656 13.9531 30 15.5 30C23.7852 30 30.5 23.2852 30.5 15C30.5 6.71484 23.7852 0 15.5 0Z" fill="white"/>
</g>
<defs>
<clipPath id="clip0_303_369">
<rect width="30" height="30" fill="white" transform="translate(0.5)"/>
</clipPath>
</defs>
</svg>
