<svg width="33" height="32" viewBox="0 0 33 32" fill="none" xmlns="http://www.w3.org/2000/svg">
<g id="Social Icons">
<path id="Vector" d="M19.7559 7.54501C20.0334 8.72126 21.0896 9.59751 22.3509 9.59751C23.8234 9.59751 25.0171 8.40376 25.0171 6.93126C25.0171 5.45876 23.8234 4.26501 22.3509 4.26501C21.0634 4.26501 19.9896 5.17751 19.7396 6.39126C17.5834 6.62251 15.8996 8.45126 15.8996 10.6675C15.8996 10.6725 15.8996 10.6763 15.8996 10.6813C13.5546 10.78 11.4134 11.4475 9.71336 12.5013C9.08211 12.0125 8.28961 11.7213 7.42961 11.7213C5.36586 11.7213 3.69336 13.3938 3.69336 15.4575C3.69336 16.955 4.57336 18.245 5.84461 18.8413C5.96836 23.1788 10.6946 26.6675 16.5084 26.6675C22.3221 26.6675 27.0546 23.175 27.1721 18.8338C28.4334 18.2338 29.3059 16.9475 29.3059 15.4588C29.3059 13.395 27.6334 11.7225 25.5696 11.7225C24.7134 11.7225 23.9246 12.0113 23.2946 12.4963C21.5796 11.435 19.4146 10.7675 17.0459 10.6788C17.0459 10.675 17.0459 10.6725 17.0459 10.6688C17.0459 9.08126 18.2259 7.76376 19.7559 7.54751V7.54501ZM9.56336 17.8288C9.62586 16.4738 10.5259 15.4338 11.5721 15.4338C12.6184 15.4338 13.4184 16.5325 13.3559 17.8875C13.2934 19.2425 12.5121 19.735 11.4646 19.735C10.4171 19.735 9.50086 19.1838 9.56336 17.8288ZM21.4459 15.4338C22.4934 15.4338 23.3934 16.4738 23.4546 17.8288C23.5171 19.1838 22.5996 19.735 21.5534 19.735C20.5071 19.735 19.7246 19.2438 19.6621 17.8875C19.5996 16.5325 20.3984 15.4338 21.4459 15.4338ZM20.2009 20.9638C20.3971 20.9838 20.5221 21.1875 20.4459 21.37C19.8021 22.9088 18.2821 23.99 16.5084 23.99C14.7346 23.99 13.2159 22.9088 12.5709 21.37C12.4946 21.1875 12.6196 20.9838 12.8159 20.9638C13.9659 20.8475 15.2096 20.7838 16.5084 20.7838C17.8071 20.7838 19.0496 20.8475 20.2009 20.9638Z" fill="white"/>
</g>
</svg>
