<svg width="31" height="31" viewBox="0 0 31 31" fill="none" xmlns="http://www.w3.org/2000/svg">
<g id="Steam">
<path id="Vector" d="M1.11687 19.7703C2.05773 22.8461 3.96122 25.5386 6.54713 27.4514C9.13303 29.3643 12.2647 30.3964 15.4812 30.3959C23.7762 30.3959 30.5 23.6796 30.5 15.3959C30.5 7.11212 23.7763 0.395875 15.4831 0.395875C11.6755 0.394402 8.00962 1.83992 5.22773 4.43974C2.44585 7.03955 0.75587 10.5994 0.5 14.3984L0.505625 14.4096L8.57563 17.7265C9.30346 17.2446 10.1655 17.0063 11.0375 17.0459L14.7125 11.7134L14.7106 11.6384C14.7121 10.1259 15.3135 8.67583 16.3827 7.60619C17.452 6.53656 18.9019 5.93474 20.4144 5.93275C21.9268 5.93474 23.3767 6.53656 24.446 7.60619C25.5153 8.67583 26.1166 10.1259 26.1181 11.6384C26.1175 12.3984 25.9653 13.1506 25.6704 13.851C25.3755 14.5515 24.9438 15.186 24.4006 15.7175C23.8574 16.249 23.2136 16.6668 22.5069 16.9464C21.8002 17.226 21.0448 17.3618 20.285 17.3459L15.0275 21.0959C15.0453 21.7905 14.8892 22.4786 14.5734 23.0975C14.2575 23.7164 13.792 24.2465 13.219 24.6397C12.6461 25.0328 11.9839 25.2765 11.2928 25.3485C10.6017 25.4206 9.90357 25.3187 9.26188 25.0521C8.64598 24.7955 8.10092 24.3943 7.67274 23.8826C7.24457 23.3709 6.94586 22.7636 6.80188 22.1121L1.11875 19.7703H1.11687Z" fill="white"/>
<path id="Vector_2" d="M9.62738 24.1765C10.4086 24.4747 11.2752 24.4569 12.0434 24.1268C12.8117 23.7967 13.4212 23.1804 13.7426 22.4085C14.0641 21.6366 14.0722 20.7698 13.7653 19.992C13.4584 19.2142 12.8606 18.5866 12.0986 18.2421C11.3432 17.9269 10.4956 17.9135 9.73051 18.2046L11.6486 18.9996C11.9355 19.1191 12.196 19.2938 12.4153 19.5139C12.6347 19.734 12.8085 19.9952 12.9269 20.2825C13.0453 20.5697 13.1059 20.8775 13.1054 21.1882C13.1048 21.499 13.0431 21.8065 12.9236 22.0934C12.8042 22.3802 12.6295 22.6408 12.4094 22.8601C12.1892 23.0794 11.9281 23.2532 11.6408 23.3716C11.3535 23.49 11.0457 23.5507 10.735 23.5501C10.4243 23.5496 10.1167 23.4878 9.82988 23.3684L7.97363 22.5996C8.31143 23.3109 8.90052 23.8719 9.62738 24.1746V24.1765ZM16.6136 11.6384C16.6141 12.6466 17.0146 13.6134 17.7271 14.3266C18.4397 15.0399 19.4061 15.4413 20.4143 15.4428C21.4224 15.4413 22.3888 15.0399 23.1014 14.3266C23.8139 13.6134 24.2144 12.6466 24.2149 11.6384C24.2134 10.6309 23.8125 9.66502 23.1001 8.95259C22.3876 8.24016 21.4218 7.83926 20.4143 7.83777C19.4067 7.83926 18.4409 8.24016 17.7285 8.95259C17.016 9.66502 16.6151 10.6309 16.6136 11.6384ZM20.4199 8.77527C20.7951 8.77551 21.1667 8.84967 21.5133 8.9935C21.8598 9.13733 22.1747 9.34802 22.4399 9.61354C22.7051 9.87905 22.9153 10.1942 23.0587 10.541C23.2021 10.8878 23.2758 11.2594 23.2755 11.6346C23.2753 12.0099 23.2011 12.3814 23.0573 12.728C22.9134 13.0746 22.7028 13.3895 22.4372 13.6547C22.1717 13.9198 21.8566 14.1301 21.5098 14.2735C21.163 14.4168 20.7914 14.4905 20.4161 14.4903C19.6583 14.4898 18.9317 14.1882 18.3961 13.652C17.8606 13.1158 17.56 12.3887 17.5605 11.6309C17.561 10.873 17.8625 10.1464 18.3988 9.61089C18.935 9.07535 19.662 8.77477 20.4199 8.77527Z" fill="white"/>
</g>
</svg>
