<svg width="31" height="30" viewBox="0 0 31 30" fill="none" xmlns="http://www.w3.org/2000/svg">
<g id="Social Icons">
<path id="Vector" d="M22.6152 13.9044C22.4859 13.8425 22.3547 13.7829 22.2217 13.7258C21.9902 9.45909 19.6587 7.01641 15.744 6.99141C15.7263 6.9913 15.7087 6.9913 15.6909 6.9913C13.3494 6.9913 11.402 7.99077 10.2034 9.80948L12.3564 11.2864C13.2518 9.92786 14.6571 9.63825 15.692 9.63825C15.7039 9.63825 15.7159 9.63825 15.7278 9.63836C17.0167 9.64658 17.9894 10.0213 18.6189 10.7522C19.077 11.2843 19.3834 12.0195 19.5352 12.9475C18.3923 12.7532 17.1564 12.6935 15.8352 12.7693C12.1132 12.9837 9.72048 15.1544 9.88119 18.1706C9.96273 19.7006 10.725 21.0169 12.0273 21.8767C13.1285 22.6036 14.5467 22.9591 16.0207 22.8786C17.9672 22.7719 19.4942 22.0292 20.5595 20.6713C21.3686 19.64 21.8803 18.3036 22.1062 16.6197C23.0339 17.1795 23.7214 17.9163 24.1011 18.8019C24.7467 20.3073 24.7844 22.7812 22.7658 24.7981C20.9972 26.565 18.8712 27.3294 15.6584 27.353C12.0944 27.3266 9.39903 26.1836 7.64658 23.9558C6.00555 21.8697 5.15745 18.8566 5.12581 15C5.15745 11.1434 6.00555 8.13025 7.64658 6.04417C9.39903 3.81639 12.0944 2.67344 15.6583 2.64695C19.2481 2.67364 21.9905 3.82209 23.81 6.06062C24.7022 7.15837 25.3748 8.53888 25.8183 10.1485L28.3413 9.47534C27.8038 7.49409 26.958 5.78683 25.807 4.37094C23.4744 1.50104 20.0628 0.0304919 15.6671 0H15.6495C11.2628 0.0303859 7.88939 1.50653 5.62317 4.38739C3.60655 6.951 2.56631 10.5181 2.53136 14.9895L2.53125 15L2.53136 15.0105C2.56631 19.4819 3.60655 23.0491 5.62317 25.6127C7.88939 28.4934 11.2628 29.9697 15.6495 30H15.6671C19.5672 29.973 22.3162 28.9519 24.5809 26.6892C27.5439 23.7291 27.4547 20.0186 26.4781 17.7408C25.7775 16.1073 24.4417 14.7807 22.6152 13.9044ZM15.8813 20.2355C14.2501 20.3273 12.5554 19.5952 12.4718 18.0269C12.4099 16.8641 13.2993 15.5666 15.9814 15.412C16.2886 15.3943 16.59 15.3856 16.8861 15.3856C17.8603 15.3856 18.7717 15.4803 19.6003 15.6614C19.2912 19.5211 17.4784 20.1478 15.8813 20.2355Z" fill="white"/>
</g>
</svg>
