<svg width="31" height="30" viewBox="0 0 31 30" fill="none" xmlns="http://www.w3.org/2000/svg">
<g id="Social Icons" clip-path="url(#clip0_303_363)">
<path id="Vector" d="M30.2012 9C30.2012 9 29.9082 6.93164 29.0059 6.02344C27.8633 4.82813 26.5859 4.82227 26 4.75195C21.8047 4.44727 15.5059 4.44727 15.5059 4.44727H15.4941C15.4941 4.44727 9.19531 4.44727 5 4.75195C4.41406 4.82227 3.13672 4.82813 1.99414 6.02344C1.0918 6.93164 0.804687 9 0.804687 9C0.804687 9 0.5 11.4316 0.5 13.8574V16.1309C0.5 18.5566 0.798828 20.9883 0.798828 20.9883C0.798828 20.9883 1.0918 23.0566 1.98828 23.9648C3.13086 25.1602 4.63086 25.1191 5.29883 25.248C7.70117 25.4766 15.5 25.5469 15.5 25.5469C15.5 25.5469 21.8047 25.5352 26 25.2363C26.5859 25.166 27.8633 25.1602 29.0059 23.9648C29.9082 23.0566 30.2012 20.9883 30.2012 20.9883C30.2012 20.9883 30.5 18.5625 30.5 16.1309V13.8574C30.5 11.4316 30.2012 9 30.2012 9ZM12.4004 18.8906V10.459L20.5039 14.6895L12.4004 18.8906Z" fill="white"/>
</g>
<defs>
<clipPath id="clip0_303_363">
<rect width="30" height="30" fill="white" transform="translate(0.5)"/>
</clipPath>
</defs>
</svg>
