<svg width="12" height="9" viewBox="0 0 12 9" fill="none" xmlns="http://www.w3.org/2000/svg">
<g id="Drop Down">
<path id="Shape" d="M5.99984 6.33579L1.46319 1.04289C1.12847 0.652369 0.585771 0.652369 0.251045 1.04289C-0.0836815 1.43342 -0.0836815 2.06658 0.251045 2.45711L5.39376 8.45711C5.72849 8.84763 6.27119 8.84763 6.60591 8.45711L11.7486 2.45711C12.0834 2.06658 12.0834 1.43342 11.7486 1.04289C11.4139 0.652369 10.8712 0.652369 10.5365 1.04289L5.99984 6.33579Z" fill="#464FEE"/>
<mask id="mask0_76_234" style="mask-type:luminance" maskUnits="userSpaceOnUse" x="0" y="0" width="12" height="9">
<path id="Shape_2" d="M5.99984 5.83579L1.46319 0.542893C1.12847 0.152369 0.585771 0.152369 0.251045 0.542893C-0.0836815 0.933417 -0.0836815 1.56658 0.251045 1.95711L5.39376 7.95711C5.72849 8.34763 6.27119 8.34763 6.60591 7.95711L11.7486 1.95711C12.0834 1.56658 12.0834 0.933417 11.7486 0.542893C11.4139 0.152369 10.8712 0.152369 10.5365 0.542893L5.99984 5.83579Z" fill="white"/>
</mask>
<g mask="url(#mask0_76_234)">
</g>
</g>
</svg>
