<svg xmlns="http://www.w3.org/2000/svg" width="497" height="588" viewBox="0 0 497 588" version="1.1"><path d="M 400.200 29.200 C 398.579 30.821, 398.579 47.179, 400.200 48.800 C 401.834 50.434, 420.166 50.434, 421.800 48.800 C 423.421 47.179, 423.421 30.821, 421.800 29.200 C 420.166 27.566, 401.834 27.566, 400.200 29.200 M 404 39 L 404 45 411 45 L 418 45 418 39 L 418 33 411 33 L 404 33 404 39 M 351.200 51.200 C 350.346 52.054, 350 58.241, 350 72.685 L 350 92.969 226.750 93.235 L 103.500 93.500 96.997 96.582 C 88.667 100.530, 81.530 107.667, 77.582 115.997 L 74.500 122.500 74.500 223 L 74.500 323.500 77.582 330.003 C 81.530 338.333, 88.667 345.470, 96.997 349.418 L 103.500 352.500 131 353 L 158.500 353.500 150.500 357.311 C 143.021 360.874, 136.726 364.333, 119.500 374.350 C 106.695 381.795, 97.226 389.621, 94.490 395.019 C 89.791 404.293, 91.657 410.526, 101.147 417.259 C 116.715 428.304, 131.160 432.689, 169.500 438.009 C 178.376 439.240, 224.489 441.580, 267.500 442.980 C 303.194 444.143, 313.093 445.254, 327.863 449.757 C 350.984 456.805, 357.412 471.962, 339.802 477.909 C 334.913 479.560, 331.141 480, 321.860 480 C 299.331 480, 284.208 478.107, 254 471.505 C 249.875 470.604, 241.362 469.687, 235.083 469.469 C 218.223 468.883, 215.280 468.283, 213.362 465.036 C 212.474 463.533, 209.667 460.898, 207.124 459.181 C 204.581 457.464, 199.931 454.289, 196.792 452.126 C 185.058 444.040, 158.652 438.392, 138 439.552 C 121.446 440.481, 104.069 445.215, 93.759 451.603 C 81.725 459.059, 76.912 468.140, 78.454 480.480 C 79.025 485.045, 79.858 486.738, 83.565 490.861 C 86.002 493.571, 90.134 497.149, 92.748 498.813 C 98.118 502.231, 118.072 508.565, 127.948 509.986 C 140.918 511.853, 159.060 512.051, 171.500 510.462 C 192.126 507.827, 200.755 503.897, 209.029 493.369 C 214.433 486.492, 217 481.515, 217 477.916 C 217 475.871, 217.308 475.800, 223.368 476.449 C 226.871 476.824, 233.509 477.277, 238.118 477.456 C 242.728 477.635, 252.575 479.135, 260 480.790 C 282.896 485.893, 301.119 488.004, 322.269 488.001 C 333.327 488, 336 487.664, 342.226 485.488 C 356.522 480.494, 361.300 471.015, 355.445 459.265 C 350.963 450.271, 336.259 442.311, 318.015 439.003 C 305.836 436.794, 294.470 435.901, 267.500 435.033 C 198.770 432.822, 177.094 431.446, 155.500 427.925 C 129.857 423.745, 116.681 419.183, 105.500 410.617 C 100.626 406.882, 100.035 406.097, 100.015 403.331 C 99.974 397.443, 108.970 389.440, 127.222 379.129 C 147.651 367.589, 153.458 364.448, 157 363.024 C 162.370 360.864, 167.870 356.985, 168.535 354.888 C 169.105 353.094, 170.594 353, 198.567 353 L 228 353 228 371.912 L 228 390.824 224.250 391.364 C 222.188 391.660, 216.900 392.177, 212.500 392.513 C 194.399 393.893, 175.941 397.632, 167.302 401.668 C 156.529 406.701, 159.733 412.819, 175.561 417.437 C 205.512 426.174, 280.982 427.753, 320.030 420.459 C 341.238 416.498, 349.463 412.185, 347.515 406.048 C 345.664 400.215, 322.414 394.530, 289.750 391.924 L 274 390.667 274 371.863 L 274 353.060 334.250 352.780 L 394.500 352.500 401.003 349.418 C 409.333 345.470, 416.470 338.333, 420.418 330.003 L 423.500 323.500 423.500 223 L 423.500 122.500 420.418 115.997 C 416.501 107.731, 409.316 100.511, 401.253 96.738 L 395 93.811 395 73.106 C 395 58.335, 394.656 52.056, 393.800 51.200 C 392.104 49.504, 352.896 49.504, 351.200 51.200 M 357 74.500 L 357 92 372.500 92 L 388 92 388 74.500 L 388 57 372.500 57 L 357 57 357 74.500 M 405.200 58.200 C 403.520 59.880, 403.520 90.120, 405.200 91.800 C 406.882 93.482, 438.118 93.482, 439.800 91.800 C 441.480 90.120, 441.480 59.880, 439.800 58.200 C 438.118 56.518, 406.882 56.518, 405.200 58.200 M 410 75 L 410 87 422.500 87 L 435 87 435 75 L 435 63 422.500 63 L 410 63 410 75 M 108.132 102.067 C 101.196 103.447, 95.393 106.769, 90.593 112.108 C 82.004 121.661, 82.500 114.863, 82.500 223 C 82.500 333.078, 81.819 324.979, 91.920 335.080 C 102.209 345.369, 87.725 344.500, 249 344.500 C 410.275 344.500, 395.791 345.369, 406.080 335.080 C 416.181 324.979, 415.500 333.078, 415.500 223 C 415.500 112.930, 416.179 121.014, 406.090 110.936 C 395.744 100.600, 410.601 101.522, 251.500 101.349 C 175.050 101.266, 110.534 101.590, 108.132 102.067 M 117.500 109.395 C 106.292 112.970, 97.522 120.573, 92.582 130.997 L 89.500 137.500 89.500 223 L 89.500 308.500 92.582 315.003 C 96.530 323.333, 103.667 330.470, 111.997 334.418 L 118.500 337.500 249 337.500 L 379.500 337.500 386.003 334.418 C 389.668 332.681, 394.651 329.191, 397.421 326.421 C 400.191 323.651, 403.681 318.668, 405.418 315.003 L 408.500 308.500 408.500 223 L 408.500 137.500 405.418 130.997 C 401.470 122.667, 394.333 115.530, 386.003 111.582 L 379.500 108.500 250.500 108.309 C 148.233 108.158, 120.671 108.383, 117.500 109.395 M 123.132 117.066 C 116.194 118.448, 110.393 121.769, 105.593 127.108 C 97.096 136.558, 97.500 131.773, 97.500 223 C 97.500 316.028, 96.923 310.083, 106.920 320.080 C 117.160 330.320, 104.796 329.500, 249 329.500 C 393.204 329.500, 380.840 330.320, 391.080 320.080 C 401.077 310.083, 400.500 316.028, 400.500 223 C 400.500 129.979, 401.075 135.910, 391.090 125.936 C 380.791 115.648, 393.521 116.522, 251.500 116.348 C 183.300 116.265, 125.534 116.588, 123.132 117.066 M 173 220 L 173 301 223.290 301 C 279.144 301, 279.333 300.982, 292.954 294.330 C 307.395 287.277, 319.244 272.223, 323.485 255.540 C 325.673 246.931, 325.673 193.069, 323.485 184.460 C 319.244 167.777, 307.395 152.723, 292.954 145.670 C 279.333 139.018, 279.144 139, 223.290 139 L 173 139 173 220 M 180 220 L 180 293 222.750 292.980 C 246.262 292.969, 268.650 292.510, 272.500 291.960 C 294.108 288.870, 312.970 270.018, 315.981 248.500 C 317.248 239.442, 317.248 200.558, 315.981 191.500 C 312.970 169.982, 294.108 151.130, 272.500 148.040 C 268.650 147.490, 246.262 147.031, 222.750 147.020 L 180 147 180 220 M 205 218.500 L 205 271.113 233.750 270.806 L 262.500 270.500 269.003 267.418 C 277.333 263.470, 284.470 256.333, 288.418 248.003 L 291.500 241.500 291.500 218.500 L 291.500 195.500 288.418 188.997 C 284.470 180.667, 277.333 173.530, 269.003 169.582 L 262.500 166.500 233.750 166.194 L 205 165.887 205 218.500 M 213 218.500 L 213 264.190 235.750 263.768 C 253.691 263.436, 259.409 262.999, 262.799 261.700 C 273.462 257.617, 281.397 248.495, 283.654 237.723 C 285.335 229.705, 285.335 207.295, 283.654 199.277 C 281.397 188.505, 273.462 179.383, 262.799 175.300 C 259.409 174.001, 253.691 173.564, 235.750 173.232 L 213 172.810 213 218.500 M 235 372 L 235 391 250.500 391 L 266 391 266 372 L 266 353 250.500 353 L 235 353 235 372 M 238 399.610 C 210.179 400.831, 176 405.458, 176 408.003 C 176 409.175, 187.374 411.630, 201.209 413.442 C 238.968 418.388, 297.284 416.958, 326.250 410.374 C 329.962 409.530, 333 408.463, 333 408.003 C 333 406.368, 311.124 402.531, 293.500 401.074 C 279.718 399.935, 249.034 399.125, 238 399.610 M 130.956 448.004 C 121.685 448.893, 105.387 454.016, 98 458.362 C 90.303 462.891, 86 469.418, 86 476.565 C 86 481.646, 86.245 482.150, 91.045 486.950 C 97.333 493.237, 98.740 493.958, 113.515 498.459 C 139.111 506.256, 178.616 505.275, 193.643 496.469 C 198.329 493.723, 206.346 484.806, 207.505 481.051 L 208.261 478.603 204.880 481.462 C 201.041 484.709, 189.728 490.112, 181.903 492.436 C 178.797 493.358, 172.873 494, 167.459 494 L 158.282 494 153.678 489.947 C 148.530 485.417, 143.159 475.604, 142.293 469.151 C 141.558 463.669, 143.451 456.658, 147.098 451.357 L 150.096 447 144.298 447.140 C 141.109 447.217, 135.105 447.605, 130.956 448.004 M 157.414 451.156 C 153.990 455.002, 151.173 459.464, 150.517 462.077 L 149.901 464.532 175.041 464.818 C 193.813 465.031, 200.002 464.812, 199.470 463.952 C 199.079 463.318, 196.036 461.040, 192.708 458.889 C 185.888 454.481, 174.237 450.462, 165.414 449.474 C 160.032 448.871, 159.312 449.022, 157.414 451.156 M 156.750 472.797 C 154.137 472.969, 152 473.447, 152 473.859 C 152 475.087, 157.525 483.390, 159.326 484.869 C 162.208 487.237, 178.129 485.881, 186.174 482.584 C 193.486 479.586, 203.088 473.850, 201.500 473.427 C 199.867 472.992, 161.906 472.458, 156.750 472.797" stroke="none" fill="#fffcfc" fill-rule="evenodd"/><path d="" stroke="none" fill="#fcfcfc" fill-rule="evenodd"/></svg>